<mxfile host="app.diagrams.net" modified="2023-09-06T01:09:13.901Z" agent="Mozilla/5.0 (Windows NT 10.0; Win64; x64) AppleWebKit/537.36 (KHTML, like Gecko) Chrome/116.0.0.0 Safari/537.36 Edg/116.0.1938.69" version="21.7.2" etag="Rdi0XOZxwzpHh0AWjSJq" type="github">
  <diagram name="페이지-1" id="W_GuoXnU9VPZzK8BfVaY">
    <mxGraphModel>
      <root>
        <mxCell id="0" />
        <mxCell id="1" parent="0" />
      </root>
    </mxGraphModel>
  </diagram>
</mxfile>
